<svg width="79" height="75" viewBox="0 0 79 75" fill="none" xmlns="http://www.w3.org/2000/svg">
<g clip-path="url(#clip0_248_361)">
<path d="M78.8637 14.3677C77.6127 5.81495 70.9742 0.00429887 62.4314 0.00221993C47.1347 0.000140985 31.838 0.000140985 16.5413 0.00637782C15.7457 0.00637782 14.9419 0.0167725 14.1567 0.135272C6.53102 1.28701 1.08588 6.92303 0.117208 14.638C-0.91535 22.8623 4.93581 31.1303 13.0603 32.4338C16.4011 32.9701 19.8698 32.6999 23.2828 32.7934C23.322 32.7934 23.3632 32.7414 23.4559 32.6791V31.8683C23.458 27.8933 23.3838 23.9163 23.4971 19.9435C23.5363 18.5485 23.831 17.0849 24.3545 15.796C26.2135 11.2327 31.0301 8.77121 35.9023 9.73584C40.5477 10.6547 44.0782 14.9436 44.1215 19.8C44.1565 23.8539 44.1298 27.9079 44.1298 31.9618V32.8163H44.779C50.795 32.8163 56.8111 32.8391 62.825 32.81C70.1601 32.7747 76.4668 27.8705 78.4103 20.7231C78.6535 19.8291 78.806 18.9081 78.9997 17.9996V14.8812C78.9523 14.7108 78.8884 14.5424 78.8637 14.3677ZM67.3592 14.0995C64.278 17.2325 61.1927 20.3613 58.0868 23.4652C57.1408 24.409 55.7806 24.3945 54.8284 23.4589C53.2641 21.9185 51.7163 20.3592 50.1953 18.773C49.2699 17.8105 49.307 16.3864 50.2097 15.4841C51.1042 14.5943 52.5283 14.5798 53.4723 15.5091C54.4636 16.482 55.4075 17.5028 56.4792 18.615C57.3181 17.7252 58.0641 16.9082 58.8391 16.1182C60.5579 14.3636 62.2912 12.6276 64.0163 10.8793C64.6985 10.187 65.5188 9.98115 66.4235 10.2514C67.2809 10.5092 67.7962 11.1433 67.9796 12.0248C68.1465 12.8231 67.9136 13.5361 67.3592 14.0995Z" fill="#060E06"/>
<path d="M60.457 63.3038H59.6141C48.9196 63.3038 38.2271 63.308 27.5326 63.2872C27.1348 63.2872 26.6546 63.1438 26.3537 62.8943C22.6831 59.8382 19.0248 56.7677 15.3934 53.6659C13.6724 52.196 13.0356 50.2813 13.5714 48.0673C14.1094 45.847 15.5644 44.4645 17.7594 43.9738C19.5854 43.5663 21.2074 44.0944 22.6274 45.3147C24.1959 46.6598 25.7808 47.9841 27.3595 49.3146C27.5512 49.4768 27.7531 49.6286 28.085 49.8926V48.9446C28.085 39.3315 28.0808 29.7185 28.0891 20.1055C28.0911 17.382 29.7214 15.143 32.1822 14.4258C35.8693 13.353 39.472 16.0765 39.4926 20.0098C39.5235 25.6209 39.5008 31.234 39.5008 36.8451V37.8347C41.4155 38.0364 43.2766 38.2276 45.1376 38.4293C48.3301 38.7723 51.535 39.028 54.7089 39.4958C57.8808 39.9656 60.3292 42.5248 60.4137 45.7409C60.5662 51.5537 60.457 57.3747 60.457 63.3038Z" fill="#060E06"/>
<path d="M60.4636 72.7797C60.4286 73.9439 59.5733 74.8025 58.4212 74.9542C58.1409 74.9917 57.8565 74.9958 57.5741 74.9958C48.7098 74.9979 39.8434 74.9958 30.977 75C30.134 75.0021 29.2911 74.948 28.7346 74.2245C28.4337 73.8358 28.1452 73.3181 28.1225 72.8462C28.0463 71.2703 28.0937 69.6862 28.0937 68.0438H60.476C60.476 69.6696 60.5131 71.2267 60.4636 72.7797Z" fill="#060E06"/>
</g>
<defs>
<clipPath id="clip0_248_361">
<rect width="79" height="75" fill="white"/>
</clipPath>
</defs>
</svg>
