<svg width="404" height="67" viewBox="0 0 404 67" fill="none" xmlns="http://www.w3.org/2000/svg">
<g clip-path="url(#clip0_29_29)">
<path d="M295.062 37.0365C295.062 30.348 295.062 23.6625 295.062 16.974C295.062 16.2623 294.921 15.5657 296.056 15.5962C302.585 15.7695 309.132 15.1977 315.64 15.9186C320.381 16.4417 324.394 18.4948 325.834 23.4983C327.329 28.6812 325.658 33.3774 320.686 35.8655C320.315 36.051 319.668 36.0388 319.683 36.559C319.695 36.9848 320.297 36.9665 320.653 37.1065C324.867 38.7854 327.047 42.0612 327.302 46.505C327.55 50.8333 325.73 54.2612 321.989 56.4998C319.47 58.0054 316.691 58.5133 313.807 58.5194C308.021 58.5285 302.235 58.489 296.449 58.5498C295.311 58.562 295.035 58.2183 295.044 57.099C295.095 50.4105 295.068 43.725 295.068 37.0365H295.062ZM303.499 45.7568C303.499 47.378 303.508 48.9992 303.493 50.6204C303.487 51.2956 303.562 51.8096 304.436 51.7975C307.479 51.7518 310.525 51.8492 313.561 51.6971C315.966 51.5754 317.841 49.9482 318.425 47.8464C319.587 43.6733 317.14 40.1542 312.813 39.9473C310.075 39.8165 307.326 39.9382 304.583 39.8865C303.711 39.8713 303.46 40.2089 303.484 41.0423C303.529 42.6118 303.496 44.1843 303.496 45.7538L303.499 45.7568ZM303.499 27.9938C303.499 29.4598 303.502 30.9259 303.499 32.392C303.499 32.9881 303.526 33.5113 304.337 33.5021C307.173 33.4656 310.024 33.636 312.84 33.3866C316.083 33.1007 317.796 30.8407 317.637 27.5923C317.491 24.5537 315.592 22.6679 312.396 22.5554C309.812 22.4641 307.221 22.5554 304.634 22.4885C303.663 22.4641 303.454 22.8778 303.484 23.7507C303.535 25.1651 303.499 26.5794 303.499 27.9968V27.9938Z" fill="#F2AF37"/>
<path d="M87.1708 34.0801C88.0483 26.0837 92.0135 20.1799 99.309 17.1048C107.443 13.6739 115.382 14.3339 122.597 19.8514C125.08 21.7494 126.691 24.3651 127.877 27.2547C128.17 27.9695 128.365 28.5109 127.152 28.4652C124.61 28.3679 122.061 28.4318 119.515 28.4379C118.958 28.4379 118.494 28.4348 118.141 27.8174C114.205 20.9494 102.181 21.1654 97.7576 28.6812C94.0081 35.0503 95.185 44.0383 100.513 48.6251C107.102 54.2977 117.856 51.3169 120.495 43.0863C121.088 41.2339 121.076 41.2126 119.237 41.2096C115.394 41.2096 111.549 41.1518 107.707 41.2431C106.527 41.2704 106.284 40.8872 106.359 39.8013C106.452 38.4904 106.428 37.1643 106.365 35.8503C106.323 35.0169 106.64 34.8435 107.395 34.8465C114.334 34.8709 121.27 34.8587 128.209 34.8648C128.677 34.8648 129.311 34.7005 129.279 35.5157C129.138 38.8767 129.713 42.2711 128.416 45.5682C125.104 53.9996 117.137 59.2099 107.931 58.9574C97.3503 58.6654 89.2313 51.6271 87.4104 41.9943C87.2996 41.4043 87.2577 40.7959 87.1858 40.1998C87.1888 39.8926 86.7845 34.8678 87.1768 34.077L87.1708 34.0801Z" fill="white"/>
<path d="M192.88 36.9909C192.88 30.3541 192.913 23.7173 192.85 17.0835C192.838 15.8547 193.195 15.5718 194.348 15.6053C200.077 15.7695 205.821 15.3102 211.535 15.879C216.273 16.3505 220.313 18.215 222.616 22.747C226.252 29.9039 223.084 38.0007 215.557 40.7351C214.377 41.164 214.521 41.5077 215.018 42.3563C217.89 47.2502 220.697 52.1837 223.59 57.0625C224.26 58.194 224.38 58.6411 222.811 58.5711C220.472 58.4708 218.124 58.5133 215.779 58.562C214.985 58.5772 214.548 58.3369 214.147 57.6039C211.466 52.7069 208.726 47.8434 206.004 42.9676C205.456 41.9882 202.455 41.1579 201.565 41.7723C201.113 42.0856 201.338 42.6179 201.335 43.0437C201.32 47.8069 201.293 52.567 201.35 57.3302C201.362 58.34 201.077 58.6015 200.113 58.5651C198.121 58.489 196.121 58.4708 194.129 58.5711C193.015 58.6289 192.853 58.2061 192.859 57.1994C192.901 50.4622 192.88 43.725 192.88 36.9878V36.9909ZM201.326 28.9184C201.326 30.7921 201.335 32.6657 201.32 34.5393C201.317 35.0807 201.287 35.5096 202.063 35.4853C204.8 35.4062 207.552 35.5461 210.274 35.3058C213.428 35.026 215.333 32.544 215.381 29.1009C215.429 25.6244 213.602 23.2884 210.394 22.8078C207.618 22.3942 204.818 22.7196 202.033 22.6071C201.224 22.5736 201.323 23.0968 201.323 23.6017C201.323 25.3749 201.323 27.1452 201.323 28.9184H201.326Z" fill="white"/>
<path d="M349.964 15.7361C351.554 15.7361 353.42 15.2129 354.651 15.8851C355.837 16.536 355.89 18.6195 356.412 20.0795C360.248 30.8499 364.036 41.6415 367.84 52.424C368.442 54.1334 369.023 55.855 369.673 57.5461C369.951 58.27 369.855 58.5407 369.044 58.5316C366.648 58.5012 364.252 58.489 361.859 58.5377C361.033 58.5559 360.886 58.0236 360.688 57.4457C360.002 55.4413 359.269 53.4521 358.64 51.4294C358.397 50.6508 358.005 50.4074 357.241 50.4135C352.303 50.4348 347.361 50.447 342.423 50.4044C341.542 50.3953 341.201 50.7755 340.958 51.545C340.335 53.516 339.625 55.4596 339.011 57.4366C338.766 58.2244 338.406 58.5742 337.538 58.5468C335.394 58.4829 333.243 58.4464 331.102 58.5559C329.688 58.6289 329.85 58.0906 330.21 57.0868C333.267 48.5521 336.286 40.0021 339.311 31.4551C341.027 26.6098 342.761 21.7737 344.429 16.9132C344.756 15.9642 345.16 15.5049 346.214 15.5931C347.454 15.6965 348.706 15.6174 349.955 15.6174C349.955 15.66 349.955 15.6996 349.955 15.7422L349.964 15.7361ZM349.781 43.6398C351.425 43.6398 353.069 43.6216 354.71 43.6459C355.567 43.6581 356.025 43.576 355.636 42.4627C353.797 37.1855 352.036 31.884 350.239 26.5916C350.164 26.3665 350.05 26.0167 349.898 25.9833C349.475 25.889 349.505 26.3513 349.425 26.5886C347.625 31.881 345.861 37.1855 344.046 42.4688C343.731 43.3813 343.941 43.6611 344.848 43.6429C346.493 43.6125 348.137 43.6338 349.778 43.6338L349.781 43.6398Z" fill="#F2AF37"/>
<path d="M169.02 30.8346C169.02 35.0382 169.104 39.2447 169.002 43.4452C168.807 51.5724 163.165 57.7651 155.196 58.7628C150.155 59.3924 145.34 58.8844 141.072 55.8002C136.855 52.7495 134.951 48.3908 134.873 43.2931C134.738 34.4815 134.852 25.6639 134.807 16.8493C134.801 15.8273 135.1 15.5688 136.062 15.6053C138.005 15.6783 139.955 15.7026 141.896 15.5992C143.037 15.5384 143.3 15.8912 143.291 17.0257C143.24 25.232 143.27 33.4383 143.258 41.6445C143.258 42.9159 143.357 44.1812 143.675 45.4009C144.729 49.4615 147.921 51.6454 152.342 51.402C157.598 51.1131 160.545 48.038 160.569 42.6483C160.611 34.1378 160.602 25.6274 160.557 17.117C160.551 15.9794 160.757 15.5171 161.997 15.5931C163.884 15.7117 165.789 15.6904 167.681 15.5992C168.775 15.5475 169.137 15.8182 169.119 17.0014C169.047 21.6094 169.089 26.2205 169.089 30.8316C169.065 30.8316 169.044 30.8316 169.02 30.8316V30.8346Z" fill="white"/>
<path d="M392.676 40.5678C392.676 46.0427 392.649 51.5146 392.7 56.9895C392.712 58.1271 392.491 58.6289 391.239 58.5529C389.4 58.4403 387.543 58.4525 385.701 58.5498C384.515 58.6107 384.186 58.2244 384.192 57.023C384.237 47.3415 384.219 37.6631 384.219 27.9816C384.219 26.6129 384.165 25.2411 384.237 23.8785C384.291 22.8322 383.961 22.4611 382.889 22.4854C379.996 22.5523 377.1 22.4641 374.207 22.531C373.141 22.5554 372.82 22.2056 372.877 21.1532C372.955 19.6871 372.934 18.2119 372.883 16.7459C372.853 15.9003 373.111 15.5962 373.979 15.5992C383.611 15.6235 393.242 15.6235 402.874 15.5992C403.727 15.5992 404.018 15.876 403.988 16.7337C403.937 18.2028 403.916 19.675 403.994 21.141C404.048 22.1782 403.751 22.5584 402.67 22.531C399.777 22.458 396.881 22.5523 393.988 22.4824C392.934 22.458 392.643 22.7805 392.652 23.845C392.703 29.4203 392.676 34.9956 392.676 40.5709V40.5678Z" fill="#F2AF37"/>
<path d="M222.604 15.6631C227.435 15.7087 232.293 15.219 237.078 16.1528C241.774 17.0683 245.443 19.5472 247.036 24.283C248.603 28.9367 247.899 33.3561 244.715 37.219C243.227 39.0257 241.244 40.0781 239.1 40.8111C238.27 41.094 238.145 41.2826 238.633 42.113C241.646 47.2137 244.554 52.3784 247.566 57.4822C248.162 58.489 247.944 58.5833 246.949 58.565C244.455 58.5194 241.957 58.5133 239.462 58.5711C238.645 58.5894 238.231 58.2943 237.842 57.5826C235.165 52.6795 232.418 47.816 229.738 42.9129C229.28 42.0734 228.804 41.6385 227.785 41.7145C226.396 41.8149 224.991 41.7206 223.596 41.6993C223.365 41.6963 223.134 41.6293 222.904 41.5928C223.056 41.4286 223.188 41.2339 223.368 41.1092C225.132 39.8865 226.501 38.2866 227.483 36.3826C227.878 35.6191 228.357 35.4701 229.13 35.4549C231.113 35.4184 233.119 35.7408 235.069 35.0899C237.971 34.1226 239.304 31.7563 239.034 27.9786C238.839 25.2472 237.016 23.3158 234.203 22.8109C232.565 22.5158 230.918 22.6679 229.274 22.6223C228.795 22.6071 228.262 22.7561 228.004 22.1143C226.902 19.3921 224.826 17.5276 222.592 15.806L222.649 15.7361L222.592 15.6661L222.604 15.6631Z" fill="white"/>
<path d="M185.132 37.1795C185.132 43.8619 185.108 50.5473 185.156 57.2298C185.162 58.2791 184.908 58.6198 183.848 58.5742C181.856 58.486 179.858 58.5133 177.867 58.565C177.031 58.5863 176.645 58.4677 176.648 57.4457C176.684 43.8771 176.678 30.3084 176.657 16.7398C176.657 15.9003 176.858 15.5809 177.738 15.6083C179.781 15.6692 181.829 15.6935 183.869 15.6022C184.971 15.5536 185.162 15.9672 185.153 16.9801C185.111 23.7142 185.132 30.4484 185.132 37.1825V37.1795Z" fill="white"/>
<path d="M263.307 37.2038C263.307 43.8436 263.283 50.4835 263.331 57.1233C263.337 58.1849 263.193 58.6502 261.987 58.5803C259.998 58.4616 257.994 58.489 256 58.5742C255.026 58.6168 254.868 58.27 254.871 57.3727C254.898 43.8893 254.904 30.4058 254.865 16.9223C254.862 15.8243 255.191 15.5627 256.209 15.6053C258.153 15.6844 260.106 15.6965 262.046 15.6022C263.155 15.5475 263.334 15.9703 263.328 16.9801C263.286 23.7203 263.307 30.4636 263.307 37.2038Z" fill="white"/>
<path d="M279.189 39.777C276.802 39.777 274.413 39.7405 272.026 39.7952C271.1 39.8165 270.69 39.6371 270.75 38.5695C270.846 36.9088 270.804 35.2359 270.762 33.5691C270.744 32.8512 270.959 32.617 271.687 32.6201C276.811 32.6505 281.939 32.6444 287.063 32.6262C287.671 32.6262 287.976 32.7539 287.961 33.4535C287.928 35.2724 287.916 37.0912 287.964 38.9101C287.985 39.7283 287.578 39.7922 286.952 39.7861C284.364 39.7679 281.777 39.777 279.189 39.78V39.777Z" fill="white"/>
<path d="M222.604 15.6631L222.661 15.733L222.604 15.803C222.526 15.7574 222.448 15.7117 222.371 15.6661C222.448 15.6661 222.526 15.6661 222.604 15.6661V15.6631Z" fill="#3D6E3F"/>
</g>
<path d="M22.1309 53.0375C20.9416 53.3775 19.9745 54.1871 18.9307 54.8246C12.8449 58.5454 6.77685 62.3002 0.714665 66.0634C-0.24066 66.6563 0.0384675 65.8276 0.0365018 65.4111C0.0266733 54.8246 0.028639 44.2381 0.028639 33.6495C0.028639 32.0218 0.054193 30.3919 0.0148792 28.7642C-0.00084631 28.1182 0.193757 27.7506 0.720562 27.4276C7.53954 23.2521 14.3448 19.0511 21.1559 14.8628C21.4527 14.6801 21.7259 14.3422 22.1348 14.5696C22.1309 17.485 22.1269 20.3983 22.123 23.3137C21.0084 23.5708 20.1534 24.3826 19.1941 24.9584C15.4298 27.2236 11.7029 29.5653 7.95037 31.8539C7.46484 32.1493 7.24862 32.4744 7.25058 33.0949C7.26827 39.4633 7.27221 45.8318 7.25058 52.2003C7.24665 53.0524 7.43732 53.0673 8.05652 52.6826C12.385 49.9903 16.7291 47.3256 21.0694 44.6546C21.3977 44.4527 21.6886 44.0915 22.1348 44.3125C22.1328 47.2194 22.1309 50.1284 22.1289 53.0354L22.1309 53.0375Z" fill="#2D572D"/>
<path d="M22.1309 53.0375C22.1329 50.1306 22.1348 47.2215 22.1368 44.3146C26.711 47.111 31.2891 49.9011 35.8554 52.7145C36.4785 53.0991 36.7674 53.2351 36.7163 52.213C36.6436 50.7659 36.6633 49.3082 36.7124 47.859C36.734 47.1981 36.5139 46.8603 35.991 46.5436C31.6036 43.8747 27.2338 41.1718 22.8602 38.4773C22.6066 38.3201 22.3688 38.1352 22.123 37.9652C22.127 35.0519 22.1329 32.1407 22.1368 29.2274C27.1631 32.3086 32.1893 35.3898 37.2156 38.4688C39.2324 39.7056 41.2453 40.9529 43.2719 42.1684C43.7751 42.4701 43.9972 42.8059 43.9953 43.4773C43.9678 50.8424 43.9717 58.2075 43.9874 65.5747C43.9874 66.3014 43.9147 66.5522 43.2129 66.1166C36.3782 61.8815 29.5317 57.6678 22.6911 53.4476C22.4946 53.3265 22.3157 53.1756 22.1289 53.0375H22.1309Z" fill="#3D6E3F"/>
<path d="M40.4274 14.9796C40.4274 15.9358 40.396 16.8941 40.4373 17.8482C40.4726 18.6685 40.2034 18.6409 39.6628 18.303C36.5157 16.3459 33.3588 14.4037 30.2039 12.4594C27.731 10.9358 25.2444 9.4377 22.7913 7.87586C22.1681 7.4785 21.7023 7.50824 21.0929 7.88649C15.5929 11.3077 10.0772 14.6991 4.5654 18.0947C3.59631 18.6919 3.59041 18.6834 3.58845 17.4339C3.58845 15.6277 3.60417 13.8215 3.57862 12.0153C3.57076 11.45 3.74767 11.1207 4.20764 10.8359C9.94352 7.3 15.6637 3.74283 21.3819 0.179293C21.7612 -0.0587009 22.0541 -0.0629508 22.4532 0.185668C28.2008 3.76833 33.9564 7.33612 39.7218 10.8848C40.2387 11.2035 40.4785 11.5584 40.4412 12.2171C40.3881 13.1351 40.4274 14.0573 40.4274 14.9774V14.9796Z" fill="#F2AF37"/>
<path d="M22.125 23.3137C22.1289 20.3983 22.1329 17.485 22.1368 14.5696C27.6918 17.9759 33.2489 21.38 38.8039 24.7863C40.3076 25.7086 41.8016 26.6478 43.3191 27.5424C43.8007 27.8271 44.0051 28.1459 43.9953 28.7685C43.956 31.1718 43.9737 33.5772 43.9835 35.9806C43.9854 36.5012 43.9678 36.8327 43.3604 36.4566C36.2858 32.0685 29.2035 27.6911 22.123 23.3116L22.125 23.3137Z" fill="#3D6E3F"/>
<path d="M22.1388 29.2273C22.1348 32.1406 22.1289 35.0518 22.125 37.9651C21.0852 38.2159 20.2635 38.949 19.3593 39.4845C17.0732 40.8402 14.8126 42.249 12.556 43.6664C12.0882 43.9596 11.87 44.119 11.8818 43.3136C11.9152 40.8402 11.8995 38.3667 11.8897 35.8933C11.8897 35.4832 11.9368 35.1857 12.326 34.9498C15.363 33.1032 18.3843 31.2248 21.4095 29.3548C21.6395 29.2124 21.8616 29.0552 22.1368 29.2273H22.1388Z" fill="#2D572D"/>
<defs>
<clipPath id="clip0_29_29">
<rect width="317" height="44" fill="white" transform="translate(87 15)"/>
</clipPath>
</defs>
</svg>
