<svg width="740" height="1065" viewBox="0 0 740 1065" fill="none" xmlns="http://www.w3.org/2000/svg">
<mask id="mask0_256_38" style="mask-type:alpha" maskUnits="userSpaceOnUse" x="-616" y="0" width="1504" height="1065">
<rect x="-615.354" y="0.238281" width="1502.55" height="1064.31" fill="#D9D9D9"/>
</mask>
<g mask="url(#mask0_256_38)">
<g opacity="0.2">
<path d="M696.302 1322.37C722.205 1329.78 743.27 1347.41 766.006 1361.3C898.563 1442.34 1030.73 1524.13 1162.78 1606.1C1183.59 1619.01 1177.51 1600.96 1177.55 1591.89C1177.76 1361.3 1177.72 1130.71 1177.72 900.073C1177.72 864.619 1177.16 829.119 1178.02 793.665C1178.36 779.594 1174.12 771.587 1162.65 764.552C1014.12 673.603 865.894 582.099 717.538 490.872C711.073 486.891 705.122 479.532 696.216 484.485C696.302 547.987 696.387 611.443 696.473 674.945C720.749 680.546 739.374 698.226 760.268 710.769C842.26 760.109 923.439 811.114 1005.17 860.963C1015.75 867.396 1020.46 874.478 1020.42 887.993C1020.03 1026.71 1019.94 1165.42 1020.42 1304.14C1020.5 1322.7 1016.35 1323.02 1002.86 1314.64C908.581 1256 813.959 1197.96 719.422 1139.78C712.272 1135.38 705.935 1127.51 696.216 1132.33C696.259 1195.65 696.302 1259.01 696.345 1322.33L696.302 1322.37Z" fill="#2D572D"/>
<path d="M696.301 1322.37C696.259 1259.06 696.216 1195.69 696.173 1132.37C596.541 1193.29 496.823 1254.06 397.363 1315.34C383.79 1323.72 377.496 1326.68 378.61 1304.41C380.194 1272.89 379.766 1241.14 378.695 1209.58C378.224 1195.18 383.02 1187.82 394.409 1180.93C489.973 1122.79 585.152 1063.92 680.417 1005.23C685.94 1001.81 691.121 997.78 696.473 994.077C696.387 930.621 696.259 867.211 696.173 803.755C586.693 870.867 477.214 937.98 367.734 1005.05C323.806 1031.98 279.962 1059.15 235.82 1085.63C224.859 1092.2 220.021 1099.51 220.063 1114.14C220.663 1274.56 220.577 1434.98 220.235 1595.45C220.235 1611.28 221.819 1616.74 237.104 1607.25C385.974 1515.01 535.101 1423.23 684.099 1331.31C688.38 1328.67 692.277 1325.38 696.344 1322.37L696.301 1322.37Z" fill="#3D6E3F"/>
<path d="M297.771 493.413C297.771 514.241 298.456 535.115 297.557 555.897C296.786 573.762 302.652 573.161 314.426 565.801C382.974 523.173 451.736 480.869 520.455 438.519C574.317 405.333 628.479 372.703 681.912 338.683C695.485 330.028 705.632 330.676 718.905 338.915C838.703 413.433 958.844 487.303 1078.9 561.266C1100.01 574.272 1100.14 574.086 1100.18 546.871C1100.18 507.529 1099.84 468.188 1100.39 428.846C1100.56 416.534 1096.71 409.36 1086.69 403.158C961.755 326.14 837.162 248.66 712.611 171.041C704.348 165.857 697.968 165.765 689.277 171.18C564.084 249.215 438.72 326.927 313.142 404.222C301.881 411.165 296.658 418.894 297.471 433.243C298.627 453.238 297.771 473.325 297.771 493.366L297.771 493.413Z" fill="#F2AF37"/>
<path d="M696.43 674.943C696.345 611.44 696.259 547.984 696.173 484.482C575.177 558.676 454.137 632.824 333.14 707.018C300.386 727.105 267.846 747.563 234.792 767.049C224.303 773.251 219.85 780.194 220.064 793.755C220.92 846.103 220.535 898.497 220.321 950.845C220.278 962.184 220.663 969.405 233.893 961.212C387.987 865.635 542.251 770.289 696.473 674.896L696.43 674.943Z" fill="#3D6E3F"/>
<path d="M696.131 803.747C696.217 867.203 696.345 930.613 696.431 994.069C719.08 999.531 736.977 1015.5 756.672 1027.16C806.467 1056.69 855.705 1087.38 904.857 1118.25C915.047 1124.64 919.8 1128.11 919.543 1110.57C918.815 1056.69 919.157 1002.82 919.372 948.942C919.372 940.009 918.344 933.529 909.867 928.391C843.716 888.17 777.909 847.255 712.016 806.524C707.006 803.423 702.168 799.998 696.174 803.747L696.131 803.747Z" fill="#2D572D"/>
</g>
</g>
</svg>
