<svg width="359" height="76" viewBox="0 0 359 76" fill="none" xmlns="http://www.w3.org/2000/svg">
<g clip-path="url(#clip0_297_79)">
<path d="M32.8383 21.855C29.58 23.6744 26.3194 25.4881 23.0666 27.3164C21.3426 28.2848 19.632 29.2767 17.8856 30.2753V49.8129C19.757 48.7528 21.4955 47.7699 23.2318 46.7836C26.2904 45.0436 29.3468 43.2992 32.4109 41.5682C32.5348 41.4977 32.7267 41.5481 32.8874 41.5425C32.8729 44.2933 32.8573 47.0453 32.8428 49.7961C28.4462 52.2886 24.0486 54.7778 19.6554 57.2736C16.6046 59.0069 13.5594 60.7491 10.3848 62.5606V26.1389C17.3601 22.1391 24.3722 18.1112 31.3977 14.1069C31.8441 13.8519 32.229 13.3688 32.8495 13.5053C32.8461 16.2885 32.8439 19.0718 32.8405 21.855H32.8383Z" fill="white"/>
<path d="M32.8422 49.7934C32.8567 47.0426 32.8723 44.2907 32.8869 41.5398C37.7933 44.2996 42.6998 47.0594 47.7157 49.8818V44.1788C42.7288 41.3017 37.7844 38.4491 32.8389 35.5965C32.8389 32.83 32.8389 30.0635 32.8389 27.2959C38.9215 30.7523 45.0063 34.2076 51.0878 37.6663C52.4257 38.4267 53.7559 39.1983 55.1049 39.9732V62.5624C53.1477 61.4543 51.2797 60.4087 49.4252 59.3431C43.8949 56.1651 38.368 52.9781 32.8411 49.7946L32.8422 49.7934Z" fill="white"/>
<path d="M32.7493 6.83925C26.5596 10.3762 20.42 13.8852 14.1299 17.4792V10.3818C20.2594 6.87615 26.4379 3.34257 32.7147 -0.248047C38.9379 3.31126 45.1756 6.87839 51.4011 10.4388V17.4881C45.112 13.8975 38.9747 10.3941 32.7482 6.83925H32.7493Z" fill="white"/>
<path d="M32.8389 21.8576C32.8422 19.0743 32.8444 16.2911 32.8478 13.5078C37.8815 16.3671 42.9152 19.2242 47.9466 22.0857C50.3346 23.4432 52.7181 24.8075 55.1094 26.1717V34.5818C47.6331 30.3102 40.236 26.0834 32.8389 21.8576Z" fill="white"/>
<path d="M32.8412 27.2949C32.8412 30.0614 32.8412 32.8279 32.8412 35.5955C29.4835 37.4752 26.1248 39.3561 22.7671 41.2358C22.6868 41.219 22.6075 41.2023 22.5283 41.1855V32.9833C25.9228 31.1226 29.218 28.9152 32.8434 27.2949H32.8412Z" fill="white"/>
<path d="M259.718 13.6783C266.45 13.9832 272.994 13.1313 279.447 14.1103C286.849 15.2338 290.482 23.0061 286.585 28.9099C285.467 30.6031 283.865 31.7587 281.727 32.5078C285.429 33.6941 287.875 35.9599 288.673 39.5979C290.057 45.9149 286.33 51.2596 279.654 52.1196C273.065 52.969 266.407 52.2855 259.719 52.4781V13.6783H259.718ZM267.42 35.8141V46.1129C270.082 46.1129 272.63 46.1129 275.179 46.1129C275.53 46.1129 275.884 46.1223 276.233 46.0902C279.262 45.8133 281.011 44.0384 281.058 41.2082C281.109 38.1815 279.477 36.0455 276.58 35.8595C273.565 35.6656 270.527 35.8167 267.42 35.8167V35.8141ZM267.36 29.6816C270.227 29.6816 272.955 29.7832 275.673 29.6508C278.114 29.5318 279.908 27.7917 280.197 25.5902C280.508 23.2241 279.378 21.044 277.129 20.3658C273.931 19.4015 270.633 20.0703 267.36 19.9205V29.6803V29.6816Z" fill="white"/>
<path d="M107.906 25.3752H99.4429C96.5894 20.5829 90.9169 19.1959 85.6675 21.1834C81.0081 22.9476 78.2854 28.0542 78.4789 33.6249C78.6978 39.9273 82.5951 44.3183 87.2865 45.4552C94.1335 47.1164 100.732 43.2082 101.37 36.8456C99.1733 36.8456 96.9858 36.8456 94.7982 36.8456C92.6106 36.8456 90.5005 36.8456 88.3036 36.8456V31.0195H108.995C110.936 42.5461 102.922 51.2787 93.278 52.5092C87.1424 53.2917 81.5807 52.029 76.8719 47.8547C73.3136 44.6995 71.2929 40.6789 70.7617 35.9656C69.8327 27.7185 72.5502 20.0626 80.2807 15.6796C88.1955 11.1922 98.8904 12.7531 104.736 19.1705C106.286 20.8718 107.438 22.8379 108.05 25.0876C108.002 25.1826 107.953 25.2789 107.905 25.3738L107.906 25.3752Z" fill="white"/>
<path d="M174.258 52.417C171.874 52.417 169.489 52.417 167.105 52.417C167.03 52.3514 166.956 52.2859 166.881 52.2217V13.6413C173.422 14.1388 180.026 12.7478 186.423 14.4424C192.244 15.9846 195.13 20.0011 195.136 25.4555C195.143 31.0369 192.212 34.8702 186.405 36.7735C189.423 41.9189 192.428 47.0442 195.525 52.3247H186.609C183.855 47.4468 181.019 42.4218 178.183 37.3954H174.474C174.474 42.3669 174.474 47.293 174.474 52.219C174.402 52.2846 174.33 52.3501 174.258 52.4156V52.417ZM174.573 31.5411C176.966 31.5411 179.252 31.5973 181.534 31.5278C184.794 31.4288 187.005 29.4212 187.204 26.496C187.434 23.0988 185.902 20.6057 182.907 20.2766C180.178 19.977 177.393 20.2124 174.574 20.2124V31.5411H174.573Z" fill="white"/>
<path d="M327.806 52.42H319.683C318.834 50.0165 317.977 47.5903 317.106 45.1186H301.707C300.884 47.5114 300.056 49.9122 299.21 52.3679H291.119C295.747 39.4128 300.339 26.5513 304.947 13.6523H313.942C318.538 26.5045 323.145 39.3874 327.805 52.42H327.806ZM315.004 38.8189C313.14 33.4047 311.337 28.167 309.415 22.5802C307.495 28.1844 305.693 33.4421 303.851 38.8189H315.004Z" fill="white"/>
<path d="M114.253 13.7803H121.765C121.765 18.2342 121.749 22.6306 121.77 27.027C121.789 30.9057 121.719 34.7912 121.925 38.6619C122.197 43.7819 126.008 46.6308 131.062 45.716C135.328 44.9442 137.499 42.3481 137.506 37.9557C137.517 29.9334 137.509 21.9097 137.509 13.8043H145.192C145.192 14.8423 145.192 15.9296 145.192 17.017C145.192 23.9868 145.196 30.9566 145.191 37.9277C145.184 46.2617 139.728 52.1708 131.385 52.7138C125.06 53.1244 119.518 51.6157 116.003 45.72C114.923 43.9103 114.302 41.9174 114.285 39.8577C114.209 31.2147 114.253 22.5704 114.253 13.7816V13.7803Z" fill="white"/>
<path d="M340.533 19.8925H330.476V13.835H358.413V19.8511H348.424V52.3739H340.533V19.8925Z" fill="white"/>
<path d="M193.573 13.9207C199.15 13.7896 204.791 12.8747 210.18 15.1592C214.555 17.0143 216.9 21.1499 216.621 26.3715C216.347 31.5129 213.455 35.048 207.993 36.7506C210.95 41.8332 213.886 46.8796 216.821 51.926C216.812 52.0892 216.802 52.2537 216.793 52.4169H208.244C205.448 47.4748 202.59 42.4217 199.651 37.2268H193.661C196.032 35.5937 197.636 33.8482 198.653 31.6066C200.679 31.3939 202.711 31.7778 204.707 31.2842C207.55 30.5807 209.129 28.2561 208.818 25.129C208.526 22.1972 206.541 20.2631 203.661 20.1695C202.169 20.1214 200.672 20.1615 199.033 20.1615C197.88 17.5319 196.098 15.4093 193.589 13.9554L193.576 13.9207H193.573Z" fill="white"/>
<path d="M152.089 52.2197V13.7891H159.691V52.4163H152.308C152.236 52.3508 152.162 52.2852 152.09 52.2197H152.089Z" fill="white"/>
<path d="M230.552 52.4181H223.399C223.324 52.3525 223.25 52.287 223.175 52.2228V13.7988H230.779C230.779 26.5868 230.779 39.4054 230.779 52.2241C230.702 52.2883 230.626 52.3539 230.552 52.4194V52.4181Z" fill="white"/>
<path d="M237.684 35.4413V28.9932H253.201V35.4413H237.684Z" fill="white"/>
</g>
<defs>
<clipPath id="clip0_297_79">
<rect width="357.439" height="75.1306" fill="white" transform="translate(0.972656 0.650391)"/>
</clipPath>
</defs>
</svg>
