<svg width="317" height="53" viewBox="0 0 317 53" fill="none" xmlns="http://www.w3.org/2000/svg">
<g clip-path="url(#clip0_248_795)">
<path d="M231.117 27.7412C231.117 22.5094 231.117 17.28 231.117 12.0483C231.117 11.4916 231.007 10.9467 231.894 10.9705C237.001 11.1061 242.122 10.6588 247.213 11.2227C250.921 11.6319 254.06 13.2379 255.187 17.1516C256.356 21.2057 255.049 24.8791 251.16 26.8252C250.869 26.9703 250.363 26.9608 250.375 27.3677C250.385 27.7007 250.855 27.6865 251.134 27.7959C254.43 29.1092 256.136 31.6716 256.335 35.1475C256.529 38.5331 255.105 41.2144 252.179 42.9654C250.209 44.1431 248.035 44.5404 245.779 44.5452C241.253 44.5523 236.727 44.5214 232.201 44.569C231.311 44.5785 231.096 44.3096 231.103 43.4341C231.143 38.2023 231.121 32.973 231.121 27.7412H231.117ZM237.716 34.5622C237.716 35.8303 237.723 37.0984 237.711 38.3665C237.706 38.8947 237.765 39.2968 238.449 39.2872C240.829 39.2516 243.212 39.3277 245.587 39.2087C247.468 39.1136 248.934 37.8407 249.391 36.1967C250.3 32.9325 248.386 30.1798 245.001 30.018C242.86 29.9157 240.71 30.0109 238.564 29.9705C237.882 29.9586 237.685 30.2227 237.704 30.8745C237.739 32.1022 237.713 33.3322 237.713 34.5599L237.716 34.5622ZM237.716 20.668C237.716 21.8147 237.718 22.9615 237.716 24.1082C237.716 24.5745 237.737 24.9838 238.372 24.9766C240.59 24.9481 242.82 25.0813 245.022 24.8862C247.559 24.6626 248.899 22.8949 248.775 20.3539C248.66 17.9771 247.175 16.5021 244.676 16.414C242.654 16.3427 240.628 16.414 238.604 16.3617C237.845 16.3427 237.681 16.6662 237.704 17.349C237.744 18.4553 237.716 19.5617 237.716 20.6703V20.668Z" fill="#F2AF37"/>
<path d="M68.5049 25.4285C69.1913 19.1737 72.2928 14.5557 77.9994 12.1504C84.3619 9.4667 90.5721 9.98298 96.2153 14.2988C98.1573 15.7834 99.4177 17.8294 100.345 20.0896C100.575 20.6487 100.727 21.0722 99.7784 21.0365C97.7896 20.9604 95.796 21.0104 93.8048 21.0151C93.3691 21.0151 93.006 21.0128 92.7296 20.5298C89.6514 15.1576 80.2459 15.3266 76.7859 21.2055C73.853 26.1874 74.7736 33.2178 78.9411 36.8056C84.0948 41.2427 92.507 38.9112 94.5708 32.4732C95.0347 31.0242 95.0253 31.0076 93.587 31.0052C90.5814 31.0052 87.5735 30.96 84.568 31.0314C83.645 31.0528 83.4553 30.753 83.5138 29.9037C83.5865 28.8782 83.5677 27.8409 83.5185 26.8131C83.4857 26.1613 83.734 26.0256 84.3244 26.028C89.7521 26.0471 95.1776 26.0375 100.605 26.0423C100.971 26.0423 101.467 25.9138 101.442 26.5514C101.332 29.1804 101.781 31.8355 100.767 34.4145C98.1761 41.0096 91.9448 45.0851 84.7437 44.8876C76.4673 44.6592 70.1166 39.1538 68.6923 31.619C68.6056 31.1575 68.5728 30.6816 68.5166 30.2153C68.5189 29.975 68.2027 26.0447 68.5096 25.4261L68.5049 25.4285Z" fill="white"/>
<path d="M151.19 27.7054C151.19 22.5141 151.215 17.3228 151.166 12.1338C151.157 11.1727 151.436 10.9514 152.338 10.9776C156.819 11.106 161.312 10.7468 165.782 11.1917C169.488 11.5605 172.648 13.0189 174.449 16.5638C177.293 22.162 174.815 28.4953 168.928 30.6342C168.005 30.9696 168.117 31.2385 168.506 31.9023C170.753 35.7303 172.948 39.5893 175.211 43.4055C175.735 44.2905 175.829 44.6403 174.601 44.5856C172.772 44.507 170.935 44.5404 169.101 44.5784C168.48 44.5903 168.138 44.4024 167.824 43.829C165.728 39.9985 163.584 36.1943 161.455 32.3805C161.026 31.6144 158.679 30.9649 157.983 31.4455C157.629 31.6905 157.805 32.1069 157.803 32.4399C157.791 36.1657 157.77 39.8891 157.815 43.6149C157.824 44.4047 157.601 44.6093 156.847 44.5808C155.289 44.5213 153.724 44.507 152.167 44.5856C151.295 44.6308 151.169 44.3001 151.173 43.5126C151.206 38.2427 151.19 32.9729 151.19 27.703V27.7054ZM157.796 21.3911C157.796 22.8567 157.803 24.3223 157.791 25.7878C157.789 26.2113 157.765 26.5468 158.372 26.5277C160.513 26.4659 162.666 26.5753 164.795 26.3874C167.262 26.1685 168.752 24.2271 168.79 21.5339C168.827 18.8145 167.398 16.9873 164.889 16.6114C162.718 16.2878 160.527 16.5424 158.349 16.4544C157.716 16.4282 157.793 16.8374 157.793 17.2324C157.793 18.6194 157.793 20.0041 157.793 21.3911H157.796Z" fill="white"/>
<path d="M274.062 11.0799C275.306 11.0799 276.765 10.6707 277.728 11.1965C278.655 11.7056 278.698 13.3354 279.105 14.4774C282.106 22.9019 285.069 31.3432 288.045 39.7773C288.515 41.1144 288.97 42.461 289.478 43.7838C289.696 44.3501 289.621 44.5618 288.986 44.5547C287.112 44.5309 285.238 44.5214 283.366 44.5594C282.72 44.5737 282.605 44.1573 282.45 43.7053C281.914 42.1374 281.34 40.5815 280.848 38.9993C280.658 38.3903 280.351 38.1999 279.754 38.2047C275.891 38.2213 272.026 38.2309 268.163 38.1976C267.474 38.1904 267.207 38.4878 267.018 39.0897C266.53 40.6314 265.975 42.1517 265.495 43.6982C265.303 44.3144 265.022 44.588 264.342 44.5666C262.665 44.5166 260.983 44.488 259.308 44.5737C258.202 44.6308 258.329 44.2097 258.61 43.4246C261.002 36.7486 263.363 30.0608 265.729 23.3754C267.071 19.5854 268.428 15.8025 269.733 12.0007C269.988 11.2584 270.304 10.8991 271.129 10.9681C272.099 11.049 273.078 10.9871 274.055 10.9871C274.055 11.0204 274.055 11.0514 274.055 11.0847L274.062 11.0799ZM273.919 32.9063C275.205 32.9063 276.491 32.892 277.775 32.9111C278.445 32.9206 278.803 32.8563 278.499 31.9856C277.06 27.8577 275.683 23.7109 274.277 19.5711C274.219 19.3951 274.13 19.1215 274.01 19.0953C273.68 19.0215 273.703 19.3832 273.64 19.5688C272.232 23.7085 270.852 27.8577 269.433 31.9903C269.187 32.7041 269.351 32.923 270.061 32.9087C271.347 32.8849 272.633 32.9015 273.916 32.9015L273.919 32.9063Z" fill="#F2AF37"/>
<path d="M132.526 22.8899C132.526 26.1779 132.592 29.4683 132.512 32.7539C132.36 39.111 127.947 43.955 121.713 44.7353C117.77 45.2278 114.004 44.8305 110.665 42.418C107.367 40.0317 105.877 36.6224 105.816 32.6349C105.711 25.7425 105.8 18.8453 105.765 11.9505C105.76 11.1511 105.994 10.9489 106.746 10.9775C108.267 11.0345 109.792 11.0536 111.31 10.9727C112.202 10.9251 112.408 11.2011 112.401 12.0885C112.361 18.5075 112.385 24.9264 112.376 31.3454C112.376 32.3399 112.453 33.3296 112.701 34.2837C113.526 37.4599 116.023 39.1681 119.481 38.9778C123.592 38.7517 125.897 36.3464 125.916 32.1305C125.948 25.4737 125.941 18.8168 125.906 12.1599C125.902 11.2701 126.063 10.9085 127.033 10.9679C128.509 11.0607 129.999 11.0441 131.479 10.9727C132.334 10.9322 132.618 11.144 132.604 12.0695C132.548 15.6739 132.58 19.2807 132.58 22.8875C132.562 22.8875 132.545 22.8875 132.526 22.8875V22.8899Z" fill="white"/>
<path d="M307.47 30.5034C307.47 34.7859 307.449 39.066 307.489 43.3485C307.498 44.2383 307.325 44.6309 306.346 44.5714C304.907 44.4833 303.455 44.4929 302.014 44.569C301.087 44.6166 300.829 44.3144 300.834 43.3747C300.869 35.8018 300.855 28.2313 300.855 20.6585C300.855 19.5878 300.813 18.5148 300.869 17.449C300.911 16.6306 300.653 16.3403 299.815 16.3593C297.552 16.4117 295.286 16.3427 293.024 16.395C292.19 16.4141 291.939 16.1404 291.983 15.3173C292.044 14.1705 292.028 13.0166 291.988 11.8699C291.965 11.2085 292.166 10.9705 292.846 10.9729C300.379 10.992 307.913 10.992 315.447 10.9729C316.114 10.9729 316.342 11.1894 316.318 11.8603C316.278 13.0095 316.262 14.161 316.323 15.3077C316.365 16.119 316.133 16.4164 315.287 16.395C313.025 16.3379 310.759 16.4117 308.496 16.357C307.672 16.3379 307.445 16.5901 307.452 17.4228C307.491 21.7838 307.47 26.1448 307.47 30.5058V30.5034Z" fill="#F2AF37"/>
<path d="M174.44 11.0229C178.219 11.0585 182.018 10.6755 185.762 11.4059C189.435 12.122 192.305 14.061 193.551 17.7654C194.776 21.4055 194.226 24.8624 191.735 27.8839C190.571 29.2972 189.02 30.1203 187.343 30.6937C186.694 30.915 186.596 31.0625 186.978 31.712C189.334 35.7019 191.609 39.7417 193.965 43.7339C194.432 44.5214 194.261 44.5951 193.483 44.5809C191.532 44.5452 189.578 44.5404 187.626 44.5856C186.987 44.5999 186.664 44.3691 186.359 43.8124C184.265 39.9772 182.117 36.1729 180.02 32.3377C179.662 31.6811 179.289 31.3409 178.493 31.4003C177.406 31.4788 176.307 31.4051 175.215 31.3884C175.035 31.3861 174.855 31.3337 174.674 31.3052C174.794 31.1767 174.897 31.0244 175.037 30.9269C176.417 29.9705 177.488 28.719 178.256 27.2297C178.565 26.6325 178.94 26.5159 179.545 26.504C181.095 26.4755 182.665 26.7277 184.19 26.2185C186.46 25.462 187.502 23.611 187.291 20.6561C187.139 18.5196 185.713 17.0088 183.513 16.6139C182.231 16.3831 180.943 16.5021 179.657 16.4664C179.282 16.4545 178.865 16.571 178.664 16.069C177.802 13.9397 176.178 12.4813 174.431 11.1347L174.475 11.08L174.431 11.0252L174.44 11.0229Z" fill="white"/>
<path d="M145.13 27.8531C145.13 33.0802 145.111 38.3095 145.148 43.5365C145.153 44.3574 144.954 44.6238 144.125 44.5881C142.567 44.5191 141.004 44.5406 139.447 44.581C138.793 44.5976 138.491 44.5049 138.493 43.7055C138.521 33.092 138.517 22.4786 138.5 11.8652C138.5 11.2086 138.657 10.9587 139.346 10.9802C140.944 11.0277 142.546 11.0468 144.141 10.9754C145.003 10.9373 145.153 11.2609 145.146 12.0532C145.113 17.3206 145.13 22.5881 145.13 27.8555V27.8531Z" fill="white"/>
<path d="M206.279 27.8721C206.279 33.0658 206.26 38.2595 206.297 43.4532C206.302 44.2836 206.19 44.6476 205.245 44.5928C203.69 44.5001 202.123 44.5215 200.563 44.5881C199.801 44.6214 199.677 44.3502 199.68 43.6483C199.701 33.1015 199.705 22.5547 199.675 12.0079C199.672 11.149 199.93 10.9444 200.727 10.9777C202.247 11.0396 203.774 11.0491 205.292 10.9753C206.159 10.9325 206.3 11.2632 206.295 12.0531C206.262 17.3253 206.279 22.5999 206.279 27.8721Z" fill="white"/>
<path d="M218.7 29.8853C216.833 29.8853 214.964 29.8567 213.097 29.8996C212.373 29.9162 212.052 29.7758 212.099 28.9408C212.174 27.6417 212.141 26.3332 212.108 25.0294C212.094 24.4679 212.263 24.2848 212.832 24.2871C216.84 24.3109 220.851 24.3062 224.859 24.2919C225.334 24.2919 225.573 24.3918 225.562 24.939C225.536 26.3618 225.526 27.7845 225.564 29.2072C225.58 29.8472 225.262 29.8972 224.772 29.8924C222.748 29.8782 220.724 29.8853 218.7 29.8877V29.8853Z" fill="white"/>
<path d="M174.443 11.0229L174.488 11.0784L174.443 11.1339C174.381 11.0977 174.32 11.0615 174.258 11.0254C174.32 11.0254 174.381 11.0254 174.443 11.0254V11.0229Z" fill="#3D6E3F"/>
</g>
<path d="M17.6287 42.0798C16.6984 42.3458 15.942 42.979 15.1255 43.4777C10.3652 46.3881 5.61874 49.3251 0.876884 52.2687C0.129626 52.7325 0.34796 52.0842 0.346423 51.7584C0.338735 43.4777 0.340273 35.1969 0.340273 26.9145C0.340273 25.6413 0.360261 24.3664 0.32951 23.0932C0.317209 22.5879 0.469428 22.3004 0.881496 22.0477C6.21532 18.7816 11.5384 15.4956 16.866 12.2195C17.0982 12.0765 17.3119 11.8123 17.6318 11.9901C17.6287 14.2706 17.6256 16.5494 17.6225 18.8298C16.7507 19.0309 16.0819 19.6659 15.3316 20.1163C12.3871 21.8881 9.47188 23.7198 6.53667 25.5099C6.15689 25.741 5.98776 25.9953 5.98929 26.4806C6.00313 31.4621 6.00621 36.4435 5.98929 41.4249C5.98622 42.0914 6.13536 42.1031 6.6197 41.8022C10.0054 39.6963 13.4034 37.612 16.7984 35.5227C17.0552 35.3648 17.2827 35.0822 17.6318 35.2551C17.6302 37.5289 17.6287 39.8043 17.6271 42.0781L17.6287 42.0798Z" fill="#E0E0E0"/>
<path d="M17.6307 42.0801C17.6322 39.8063 17.6337 37.5308 17.6353 35.257C21.2132 37.4444 24.7942 39.6268 28.366 41.8274C28.8534 42.1283 29.0794 42.2347 29.0394 41.4352C28.9825 40.3033 28.9979 39.163 29.0363 38.0295C29.0532 37.5125 28.881 37.2483 28.472 37.0006C25.0402 34.9129 21.6222 32.7987 18.2011 30.6911C18.0028 30.5681 17.8167 30.4235 17.6245 30.2905C17.6276 28.0117 17.6322 25.7346 17.6353 23.4558C21.5668 25.8659 25.4984 28.276 29.4299 30.6845C31.0075 31.6518 32.582 32.6275 34.1672 33.5782C34.5608 33.8143 34.7346 34.0769 34.733 34.6021C34.7115 40.3631 34.7146 46.1241 34.7269 51.8867C34.7269 52.4552 34.67 52.6513 34.1211 52.3106C28.7749 48.9979 23.4196 45.7019 18.0689 42.4009C17.9151 42.3061 17.7752 42.1881 17.6291 42.0801H17.6307Z" fill="white"/>
<path d="M31.9411 12.3113C31.9411 13.0592 31.9165 13.8089 31.9488 14.5552C31.9765 15.1968 31.7658 15.1752 31.343 14.9109C28.8813 13.38 26.412 11.8608 23.9442 10.34C22.01 9.14823 20.0649 7.97643 18.146 6.75475C17.6586 6.44393 17.2942 6.4672 16.8176 6.76306C12.5155 9.43911 8.20107 12.0919 3.88973 14.748C3.13171 15.215 3.1271 15.2084 3.12556 14.2311C3.12556 12.8182 3.13786 11.4054 3.11787 9.9926C3.11172 9.55047 3.2501 9.29284 3.60989 9.07011C8.09651 6.30431 12.5708 3.52189 17.0436 0.734482C17.3404 0.548322 17.5695 0.544998 17.8816 0.739468C22.3774 3.54184 26.8794 6.33257 31.3891 9.10834C31.7935 9.35766 31.9811 9.63524 31.9519 10.1505C31.9103 10.8685 31.9411 11.5899 31.9411 12.3096V12.3113Z" fill="#F2AF37"/>
<path d="M17.626 18.8297C17.6291 16.5492 17.6322 14.2704 17.6353 11.99C21.9804 14.6544 26.3271 17.3171 30.6723 19.9816C31.8485 20.7029 33.0171 21.4376 34.2041 22.1374C34.5808 22.3601 34.7407 22.6094 34.733 23.0964C34.7023 24.9763 34.7161 26.8578 34.7238 28.7377C34.7253 29.1449 34.7115 29.4042 34.2364 29.11C28.7027 25.6777 23.1628 22.2537 17.6245 18.828L17.626 18.8297Z" fill="white"/>
<path d="M17.6357 23.4557C17.6326 25.7345 17.628 28.0116 17.6249 30.2904C16.8115 30.4865 16.1688 31.06 15.4616 31.4788C13.6734 32.5393 11.9052 33.6413 10.14 34.7499C9.7741 34.9793 9.60343 35.104 9.61266 34.474C9.6388 32.5393 9.6265 30.6046 9.61881 28.6698C9.61881 28.349 9.65571 28.1163 9.96015 27.9318C12.3357 26.4874 14.6989 25.0181 17.0652 23.5554C17.2451 23.4441 17.4189 23.3211 17.6341 23.4557H17.6357Z" fill="#E0E0E0"/>
<defs>
<clipPath id="clip0_248_795">
<rect width="247.958" height="34.4169" fill="white" transform="translate(68.3706 10.5042)"/>
</clipPath>
</defs>
</svg>
